PathFileType	4	(X/Y/Z)	C:/Users/beibeiliu/ov580/test_trc\sequence.40_training_dense_right.trc
DataRate	CameraRate	NumFrames	NumMarkers	Units	OrigDataRate	OrigDataStartFrame	OrigNumFrames
120	120	19	19	mm	120	54	80
Frame#	Time	ThumbCMC			ThumbMCP			ThumbIP			ThumbTip			IndexMCP			IndexPIP			IndexTip			MiddleMCP			MiddlePIP			MiddleTip			RingMCP			RingPIP			RingTip			PinkyMCP			PinkyPIP			PinkyTip			BackHand1			BackHand2			BackHand3	
		X0	Y0	Z0	X1	Y1	Z1	X2	Y2	Z2	X3	Y3	Z3	X4	Y4	Z4	X5	Y5	Z5	X6	Y6	Z6	X7	Y7	Z7	X8	Y8	Z8	X9	Y9	Z9	X10	Y10	Z10	X11	Y11	Z11	X12	Y12	Z12	X13	Y13	Z13	X14	Y14	Z14	X15	Y15	Z15	X16	Y16	Z16	X17	Y17	Z17	X18	Y18	Z18	
53	0.441667	155.56	75.7852	75.5115	152.897	92.8732	49.5541	151.293	98.0925	30.067	152.474	104.789	6.23581	158.183	51.3309	15.9562	148.607	65.4754	-4.03805	133.375	88.4894	-5.75304	142.032	42.4514	10.8265	127.464	67.4665	-4.58675	120.208	85.1709	19.2195	118.958	40.3046	13.1036	113.019	64.9352	8.32351	119.771	77.3415	35.6175	104.024	34.3799	27.3888	99.218	55.0582	15.0979	111.97	73.085	30.0814	127.405	26.7198	66.7573	127.471	32.8454	91.5542	153.452	40.4149	77.5608	
54	0.45	158.776	64.9229	75.2264	158.177	81.7762	51.6699	160.543	89.1498	27.8626	161.174	97.3549	11.8783	152.457	45.5304	10.6867	147.08	66.7692	-6.12699	138.73	89.2738	-3.68359	134.411	39.7866	8.34977	127.406	67.6337	-3.73672	129.282	86.3987	17.512	116.204	43.5784	14.3157	111.618	68.2262	10.5481	121.168	78.9657	34.5288	98.8087	40.8905	25.9733	101.278	62.9806	17.8184	115.246	77.0087	37.6475	124.301	26.8036	63.1718	123.449	30.3979	91.7833	151.017	31.2624	73.2557	
55	0.458333	158.822	58.478	73.1746	159.769	74.848	47.4929	163.328	84.5608	30.1282	162.684	91.5977	8.05643	149.316	43.6426	10.8217	142.398	64.2136	-4.79266	139.066	88.6948	-2.18869	127.647	40.0039	9.20083	124.849	66.4949	-3.75752	129.112	86.8619	22.7992	107.857	44.6315	18.5897	115.939	72.2151	12.2106	120.245	80.884	38.346	95.2661	44.7635	30.6553	97.3763	68.782	20.3139	116.819	78.0171	34.642	117.372	25.6255	63.305	120.88	30.5042	91.9768	148.606	28.5481	72.0839	
56	0.466667	158.046	57.6535	72.2582	159.151	77.1169	48.1596	160.661	84.123	28.2931	162.458	93.4968	9.79758	142.663	46.4558	10.0957	141.582	65.8985	-4.45181	137.854	95.1131	0.540457	123.431	43.3224	9.66267	118.988	68.7634	-3.13146	126.874	89.4244	21.2915	107.745	48.5345	18.9722	107.472	76.7062	13.4806	116.737	83.7039	38.1846	93.6231	49.1478	30.5859	93.7511	72.7372	21.9151	110.427	81.8901	40.2719	113.079	29.4214	65.5237	118.965	29.6961	90.7263	141.836	28.9319	70.9502	
57	0.475	156.793	62.6931	74.0922	156.265	83.0692	48.3883	157.058	94.2796	27.9591	153.771	101.562	15.5027	142.756	52.5898	11.4845	134.062	74.621	-3.96284	128.433	101.529	5.28927	118.289	49.1188	10.628	114.451	77.7467	-0.944554	117.941	94.5069	24.2396	101.39	52.0856	21.2893	102.335	79.1845	15.65	116.206	85.8408	40.9288	86.4566	52.1224	31.4993	92.6111	73.6586	24.4093	109.818	83.1111	45.9678	116.744	30.0799	64.6225	118.754	29.3849	87.5751	141.408	31.8463	70.2523	
58	0.483333	150.604	69.964	74.7175	145.615	92.9547	56.7378	144.466	104.995	38.0398	136.086	112.553	19.4315	137.274	61.624	14.6421	127.86	84.8518	-0.900507	116.833	107.017	7.77788	117.822	52.3732	13.728	102.9	80.1381	3.58033	108.883	99.0968	29.58	103.41	52.6418	21.3936	92.9673	78.9396	21.9918	103.761	86.7328	44.3236	85.5039	47.5141	34.8766	84.2695	72.0261	30.3697	98.8658	83.0481	50.2082	116.247	30.8122	66.528	122.545	28.5553	92.9863	144.407	37.6058	72.9309	
59	0.491667	141.086	79.0635	78.8904	130.739	102.642	59.6718	119.936	106.559	38.6903	112.696	116.252	24.8557	136.278	73.4432	16.1555	117.441	87.2848	2.63847	96.5479	104.858	9.422	117.035	58.1638	11.4875	97.1465	79.0002	4.11522	90.9725	95.254	28.9343	101.526	49.532	20.8842	85.6571	72.9241	21.8088	90.565	80.8818	47.4833	89.3968	39.0923	35.3797	78.2864	61.9358	31.8587	90.7037	74.6977	49.485	124.049	33.0762	60.8185	129.711	30.0521	91.4316	147.122	46.0226	74.3606	
60	0.5	130.441	91.568	82.4483	112.967	102.08	59.8055	103.329	110.336	39.856	93.1275	117.132	22.4876	131.944	82.6487	14.4828	109.978	95.1538	1.36221	85.4415	105.182	5.61807	124.775	65.433	13.0273	99.9232	79.6902	1.25694	81.4905	87.9433	31.6753	107.401	50.9758	15.7131	87.3797	66.2754	18.6163	86.5754	74.1064	45.9353	99.7551	35.3072	30.7051	86.1784	57.8276	27.1669	84.964	67.7729	48.017	133.83	37.81	60.6059	136.767	37.0362	88.5967	149.162	60.4361	71.9947	
61	0.508333	118.781	96.1598	79.471	97.9635	107.012	60.3144	89.7793	110.744	36.8296	83.8555	109.685	19.8997	133.175	96.5656	20.6857	109.557	96.754	0.685396	85.644	101.941	1.32722	129.21	73.0415	14.0488	101.606	83.0315	-0.367243	81.5732	85.2122	23.6625	120.371	60.5335	15.4484	96.2476	66.7586	12.1422	86.498	70.5098	39.4194	115.339	43.5029	22.972	94.9505	51.6218	20.6929	90.667	67.33	46.1251	141.063	49.9324	59.5027	140.942	47.584	87.5942	146.547	77.917	76.8757	
62	0.516667	109.334	100.247	80.8459	91.057	105.081	56.8113	84.9115	110.375	31.3194	78.3983	112.597	15.4786	130.074	105.309	22.9517	112.317	104.772	3.33047	83.3307	103.795	-1.57701	131.641	86.8351	9.77512	105.676	89.2138	-1.4316	82.1636	81.3908	22.4005	127.479	66.7823	15.5933	98.821	73.6332	11.4438	89.5035	71.134	39.8119	125.901	48.2792	21.8646	102.11	58.6667	17.2848	94.9931	68.5048	40.9412	144.039	61.3454	63.5399	141.169	53.9159	90.0523	140.317	85.3652	77.7118	
63	0.525	102.729	102.167	75.6294	86.8446	107.162	50.9234	80.551	113.693	29.0268	75.1157	115.465	7.08864	126.226	111.752	20.2533	105.342	115.836	-0.17536	82.1151	102.391	-5.90415	131.125	94.0801	10.4365	107.873	93.7567	-5.03713	81.902	80.7578	18.3228	129.429	73.82	12.3373	102.561	73.993	5.26132	90.3955	71.6548	29.3648	129.667	56.1416	17.1774	108.929	64.0317	9.59868	93.1717	68.3271	31.3779	145.429	68.4341	57.9798	137.253	59.5732	86.7521	134.444	92.1172	76.2345	
64	0.533333	94.692	98.8215	67.1444	79.703	110.121	36.6091	73.6131	113.801	17.6739	73.7548	114.305	-6.66912	118.999	120.974	10.6085	98.2648	117.897	-13.5513	78.0309	103.469	-19.9803	126.218	104.227	-0.946285	104.379	95.5164	-18.456	80.6148	84.8068	0.52601	128.158	81.5135	-1.27129	98.9479	76.0003	-9.50966	88.2196	74.0929	12.1952	130.367	64.9108	3.17448	107.13	66.7172	-5.54809	91.0732	66.179	14.0944	141.855	72.9551	44.5245	135.062	63.3698	72.4222	128.053	92.7057	65.2581	
65	0.541667	86.0531	91.7218	36.9549	74.3012	95.0834	9.07751	68.6067	101.581	-11.8998	67.5724	101.7	-33.0084	111.82	115.979	-16.5253	98.5957	108.02	-42.9142	80.1405	95.6912	-51.4929	124.786	99.2975	-31.2004	104.721	90.7756	-47.4054	82.3128	76.1884	-31.4257	126.053	82.4193	-29.0663	102.826	74.235	-38.2436	88.6833	66.8562	-14.9823	131.841	64.3429	-24.1368	108.754	59.212	-32.368	94.7806	60.1814	-14.8724	138.136	73.0867	22.2546	129.812	63.6682	47.7262	123.769	91.7442	37.4375	
66	0.55	78.3302	75.7672	-1.62686	67.5745	72.4602	-27.9269	61.2909	78.2372	-52.6682	60.6418	77.0713	-71.2581	105.347	100.193	-58.5921	97.1575	97.6864	-81.9698	81.7859	76.5722	-98.2547	121.041	87.6283	-63.6199	106.848	73.6535	-86.893	87.1072	51.4297	-69.8918	128.507	68.684	-66.1803	106.879	52.7104	-75.0472	93.495	46.1387	-54.6849	136.791	53.3977	-55.6238	119.392	44.8416	-67.6625	99.857	37.9904	-48.3999	137.539	69.1674	-14.3077	129.166	59.9137	11.7233	112.85	82.5127	2.32528	
67	0.558333	73.4942	57.7582	-35.3593	64.4741	47.0149	-60.018	58.3995	45.931	-82.9539	47.9147	43.4226	-97.8429	104.267	77.1981	-94.0909	102.036	73.2943	-120.218	99.0899	55.6936	-139.683	118.266	65.92	-102.096	114.352	47.1711	-121.124	97.0903	22.8673	-109.52	132.622	48.9317	-91.3068	117.699	30.4224	-106.545	101.816	19.6068	-86.2852	142.652	33.8901	-80.929	122.452	20.8508	-94.1718	106.608	14.8482	-78.1147	131.786	58.7163	-42.9549	128.315	54.2407	-15.4847	105.453	73.2512	-35.9543	
68	0.566667	73.8302	40.7714	-56.3406	65.6165	25.6881	-74.8881	49.5125	21.13	-94.6288	40.4042	16.9548	-108.685	105.333	53.0485	-114.046	111.538	49.9878	-138.213	109.853	39.6867	-161.634	126.28	41.8565	-122.208	123.155	21.9132	-139.585	106.282	-4.0983	-129.745	137.667	27.4284	-110.133	124.491	7.33311	-122.78	105.495	-3.43917	-101.824	145.37	16.4967	-96.7756	134.011	1.66107	-108.061	110.319	-4.28044	-92.8547	129.561	46.8428	-63.6322	126.713	47.1369	-39.7107	107.942	57.2663	-59.5846	
69	0.575	79.8305	31.6358	-65.6771	67.6748	15.6401	-80.5027	52.3557	10.0921	-100.933	41.952	4.63659	-109.82	105.691	41.7888	-125.734	111.479	36.7568	-146.674	113.987	27.3271	-167.479	126.368	30.6558	-126.24	124.567	9.71591	-146.392	112.32	-18.6778	-134.246	138.679	16.8992	-113.571	128.069	-3.81285	-127.276	112.645	-19.1491	-106.719	146.077	6.10124	-102.546	139.812	-13.9101	-109.499	117.32	-19.4307	-98.8562	134.311	37.1986	-72.312	123.467	41.9715	-44.3045	104.298	48.5572	-64.1538	
70	0.583333	80.5749	31.9222	-55.6748	68.9002	16.4496	-77.1365	52.8774	13.1639	-94.7286	43.6318	8.46524	-108.739	109.875	41.802	-118.783	110.54	36.5944	-141.073	108.594	21.8918	-164.174	129.253	30.4829	-117.548	122.824	14.1795	-140.544	110.567	-14.9826	-132.583	135.966	17.9596	-108.309	127.146	-2.08278	-123.951	107.442	-16.6605	-108.84	146.107	6.297	-97.5832	134.928	-13.4566	-107.276	115.118	-18.6764	-101.568	135.198	33.8935	-66.095	127.792	37.896	-40.924	109.719	49.9024	-58.3373	
71	0.591667	78.3538	41.8495	-40.7429	62.5168	31.2209	-61.0984	57.5665	25.7879	-85.0005	46.2923	22.0682	-102.976	101.815	52.1349	-102.044	102.236	39.9393	-126.62	92.331	26.2624	-142.214	118.93	40.744	-107.276	113.711	24.8136	-127.491	94.5428	-4.08641	-123.546	130.902	26.5378	-96.8473	123.565	7.27324	-112.048	99.5215	-9.82556	-103.339	141.156	13.5587	-81.5944	131.961	1.43152	-99.1869	112.762	-10.317	-97.5877	133.165	41.161	-48.2589	125.133	42.1913	-20.8881	106.453	54.2417	-38.6581	
